<svg width="93" height="13" viewBox="0 0 93 13" fill="none" xmlns="http://www.w3.org/2000/svg">
<path d="M4.69938 0.180776C6.02164 0.180776 7.17713 0.44597 8.16584 0.976325C9.15454 1.50668 9.91694 2.25404 10.453 3.21833C11.001 4.17059 11.2749 5.27351 11.2749 6.52709C11.2749 7.76864 11.001 8.87156 10.453 9.83585C9.91694 10.8001 9.1486 11.5475 8.14797 12.0779C7.15927 12.6082 6.00971 12.8734 4.69938 12.8734H0V0.180776H4.69938ZM4.50283 10.1975C5.65832 10.1975 6.55769 9.87803 7.20095 9.23919C7.84421 8.60035 8.16584 7.69632 8.16584 6.52709C8.16584 5.35786 7.84421 4.44781 7.20095 3.79691C6.55769 3.146 5.65832 2.82055 4.50283 2.82055H3.05549V10.1975H4.50283ZM20.7016 13C19.5223 13 18.4383 12.7227 17.4496 12.1683C16.4728 11.6138 15.6925 10.8424 15.1088 9.85393C14.537 8.85348 14.2511 7.73248 14.2511 6.49093C14.2511 5.24938 14.537 4.13443 15.1088 3.146C15.6925 2.15758 16.4728 1.38616 17.4496 0.83168C18.4383 0.277196 19.5223 -3.05176e-05 20.7016 -3.05176e-05C21.8809 -3.05176e-05 22.959 0.277196 23.9358 0.83168C24.9245 1.38616 25.6988 2.15758 26.2587 3.146C26.8304 4.13443 27.1163 5.24938 27.1163 6.49093C27.1163 7.73248 26.8304 8.85348 26.2587 9.85393C25.6869 10.8424 24.9126 11.6138 23.9358 12.1683C22.959 12.7227 21.8809 13 20.7016 13ZM20.7016 10.1794C21.7022 10.1794 22.5004 9.84187 23.096 9.16686C23.7035 8.49186 24.0072 7.59986 24.0072 6.49093C24.0072 5.36993 23.7035 4.47796 23.096 3.81499C22.5004 3.13999 21.7022 2.80247 20.7016 2.80247C19.6891 2.80247 18.879 3.13394 18.2715 3.79691C17.6759 4.45988 17.3781 5.35786 17.3781 6.49093C17.3781 7.61193 17.6759 8.50994 18.2715 9.18495C18.879 9.84791 19.6891 10.1794 20.7016 10.1794ZM30.0849 6.50901C30.0849 5.25543 30.3529 4.14044 30.8889 3.16409C31.4249 2.17566 32.1695 1.41026 33.1224 0.867841C34.0873 0.313356 35.1773 0.036131 36.3923 0.036131C37.8816 0.036131 39.1561 0.433905 40.2162 1.22945C41.2766 2.025 41.9851 3.10984 42.3425 4.48397H38.9832C38.7331 3.95362 38.3757 3.5498 37.9111 3.27257C37.4586 2.99534 36.9404 2.85671 36.3566 2.85671C35.4157 2.85671 34.6532 3.18818 34.0694 3.85115C33.486 4.51412 33.1939 5.40007 33.1939 6.50901C33.1939 7.61794 33.486 8.5039 34.0694 9.16686C34.6532 9.82983 35.4157 10.1613 36.3566 10.1613C36.9404 10.1613 37.4586 10.0227 37.9111 9.74545C38.3757 9.46822 38.7331 9.0644 38.9832 8.53404H42.3425C41.9851 9.90817 41.2766 10.993 40.2162 11.7886C39.1561 12.572 37.8816 12.9638 36.3923 12.9638C35.1773 12.9638 34.0873 12.6926 33.1224 12.1502C32.1695 11.5957 31.4249 10.8303 30.8889 9.85393C30.3529 8.87757 30.0849 7.76259 30.0849 6.50901ZM49.0025 0.180776V7.77465C49.0025 8.53404 49.187 9.11864 49.5564 9.52848C49.9255 9.93832 50.4677 10.1432 51.1825 10.1432C51.8972 10.1432 52.4449 9.93832 52.8263 9.52848C53.2074 9.11864 53.3981 8.53404 53.3981 7.77465V0.180776H56.4536V7.75657C56.4536 8.88964 56.2152 9.84791 55.7389 10.6314C55.2623 11.4149 54.619 12.0055 53.8091 12.4033C53.0109 12.8011 52.1175 13 51.1288 13C50.1399 13 49.2527 12.8071 48.4665 12.4214C47.692 12.0236 47.0786 11.433 46.626 10.6495C46.1731 9.85393 45.947 8.88964 45.947 7.75657V0.180776H49.0025ZM68.5518 0.180776V2.65783H63.4414V5.33376H67.2653V7.73849H63.4414V12.8734H60.386V0.180776H68.5518ZM75 0.180776V12.8734H71.9445V0.180776H75Z" fill="#3B1F9E"/>
<path d="M82.9265 2.29973L83.1977 2.02846C83.3746 1.85172 83.3371 1.55616 83.1239 1.42821L81.0695 0.195116C80.5301 -0.127868 79.8439 -0.0435624 79.4008 0.400817C78.9565 0.844831 78.8722 1.53125 79.1951 2.07003L80.4278 4.12479C80.556 4.3383 80.8528 4.37531 81.028 4.19861L81.2995 3.92736L83.3747 5.99997L85 4.37403L82.9265 2.29973Z" fill="#FF9400"/>
<path d="M92.7203 1.5166C92.6 1.28186 92.2618 1.2234 92.0603 1.41132L90.9992 2.39657C90.8438 2.54089 90.5747 2.54089 90.4192 2.39657C90.2594 2.24816 90.2594 2.00642 90.4192 1.85801L91.4803 0.87276C91.68 0.687443 91.6225 0.372956 91.3669 0.259811C90.2707 -0.226671 88.9576 -0.017275 88.0989 0.78088C87.3102 1.51284 87.0554 2.60074 87.424 3.56144L82.8352 7.82231C81.8014 7.48012 80.6294 7.71669 79.8407 8.44903C78.9816 9.24682 78.756 10.4664 79.2796 11.4836C79.4016 11.7215 79.7405 11.7737 79.9396 11.5889L81.0007 10.6036C81.1609 10.4556 81.4213 10.4552 81.5807 10.604C81.7405 10.7516 81.7416 10.992 81.5807 11.1422L80.5196 12.1274C80.32 12.3128 80.3774 12.6273 80.6331 12.7404C81.0267 12.9152 81.4485 13 81.8674 13C82.614 13 83.3507 12.7303 83.9005 12.2193C84.6896 11.4873 84.944 10.3994 84.5754 9.43872L89.1643 5.17791C90.1978 5.51972 91.3702 5.28354 92.1592 4.55119C93.0183 3.7534 93.244 2.53385 92.7203 1.5166Z" fill="#FF9400"/>
<path d="M92.4627 9.36591C91.2174 7.91026 90.5347 7.33194 89.0748 5.99998L87 8.43428C88.0262 9.97966 88.6476 10.9764 89.8129 12.3442C90.1941 12.7914 90.7007 13 91.1991 13C91.5649 13 91.9261 12.8981 92.2295 12.6421C92.6719 12.2681 92.9506 11.6918 92.994 11.0618C93.0373 10.4309 92.8439 9.81307 92.4627 9.36591ZM91.406 11.1319C91.26 11.288 91.0324 11.2731 90.8928 11.1092L89.4399 9.40466C89.3002 9.24077 89.2873 8.97379 89.4203 8.80243C89.5625 8.61953 89.8038 8.61458 89.9513 8.78752L91.4187 10.5091C91.5662 10.6821 91.562 10.9653 91.406 11.1319Z" fill="#FF9400"/>
</svg>
